<svg xmlns="http://www.w3.org/2000/svg" width="132.636" height="153.88" viewBox="0 0 132.636 153.88">
    <path id="Icon_awesome-user-graduate" data-name="Icon awesome-user-graduate" d="M94.563,96.356,66.318,125.027,38.074,96.356A40.034,40.034,0,0,0,0,136.568v2.885a14.323,14.323,0,0,0,14.211,14.426H118.425a14.323,14.323,0,0,0,14.211-14.426v-2.885A40.034,40.034,0,0,0,94.563,96.356ZM4.026,23.988l1.895.451V41.99a7,7,0,0,0-.266,12.021L1.036,72.735c-.5,2.074.622,4.207,2.25,4.207H15.662c1.628,0,2.753-2.134,2.25-4.207L13.293,54.011a7,7,0,0,0-.266-12.021V26.182l19.54,4.778a38.635,38.635,0,0,0-4.145,17.13c0,21.248,16.964,38.468,37.9,38.468s37.9-17.22,37.9-38.468a38.241,38.241,0,0,0-4.145-17.13l28.511-6.972c5.388-1.322,5.388-8.144,0-9.467L72.21.7A25.064,25.064,0,0,0,60.456.7L4.026,14.491c-5.359,1.322-5.359,8.174,0,9.5Z" transform="translate(0 0.002)" fill="#08dce7"/>
</svg>
